HIERARCHY
ROOT Hips
{
	OFFSET -14.64140 90.27770 -84.91600
	CHANNELS 6 Xposition Yposition Zposition Zrotation Xrotation Yrotation
	JOINT Spine
	{
		OFFSET 0.00000 13.20850 -1.60436
		CHANNELS 3 Zrotation Xrotation Yrotation
		JOINT Spine1
		{
			OFFSET 0.00000 8.61716 0.00000
			CHANNELS 3 Zrotation Xrotation Yrotation
			JOINT Spine2
			{
				OFFSET 0.00000 8.61717 0.00000
				CHANNELS 3 Zrotation Xrotation Yrotation
				JOINT Spine3
				{
					OFFSET 0.00000 8.61717 0.00000
					CHANNELS 3 Zrotation Xrotation Yrotation
					JOINT Neck
					{
						OFFSET 0.00000 11.07920 1.10792
						CHANNELS 3 Zrotation Xrotation Yrotation
						JOINT Neck1
						{
							OFFSET 0.00000 7.08032 0.00000
							CHANNELS 3 Zrotation Xrotation Yrotation
							JOINT Head
							{
								OFFSET 0.00000 7.08031 0.00000
								CHANNELS 3 Zrotation Xrotation Yrotation
								End site
								{
									OFFSET 0.00000 0.00000 0.00000
								}
							}
						}
					}
					JOINT RightShoulder
					{
						OFFSET -0.01000 7.91373 5.19711
						CHANNELS 3 Zrotation Xrotation Yrotation
						JOINT RightArm
						{
							OFFSET -18.41580 0.00000 0.00000
							CHANNELS 3 Zrotation Xrotation Yrotation
							JOINT RightForeArm
							{
								OFFSET -29.11090 0.00000 0.00000
								CHANNELS 3 Zrotation Xrotation Yrotation
								JOINT RightHand
								{
									OFFSET -24.65040 0.00000 0.00000
									CHANNELS 3 Zrotation Xrotation Yrotation
									JOINT RightHandThumb1
									{
										OFFSET -5.35114 -0.85590 3.97906
										CHANNELS 3 Zrotation Xrotation Yrotation
										JOINT RightHandThumb2
										{
											OFFSET -4.52789 0.00000 0.00000
											CHANNELS 3 Zrotation Xrotation Yrotation
											JOINT RightHandThumb3
											{
												OFFSET -2.46976 0.00000 0.00000
												CHANNELS 3 Zrotation Xrotation Yrotation
												End site
												{
													OFFSET 0.00000 0.00000 0.00000
												}
											}
										}
									}
									JOINT RightHandIndex1
									{
										OFFSET -14.26970 0.00000 2.88139
										CHANNELS 3 Zrotation Xrotation Yrotation
										JOINT RightHandIndex2
										{
											OFFSET -5.48836 0.00000 0.00000
											CHANNELS 3 Zrotation Xrotation Yrotation
											JOINT RightHandIndex3
											{
												OFFSET -3.01859 0.00000 0.00000
												CHANNELS 3 Zrotation Xrotation Yrotation
												End site
												{
													OFFSET 0.00000 0.00000 0.00000
												}
											}
										}
									}
									JOINT RightHandMiddle1
									{
										OFFSET -14.26970 0.00000 -0.09147
										CHANNELS 3 Zrotation Xrotation Yrotation
										JOINT RightHandMiddle2
										{
											OFFSET -6.17441 0.00000 0.00000
											CHANNELS 3 Zrotation Xrotation Yrotation
											JOINT RightHandMiddle3
											{
												OFFSET -3.56743 0.00000 0.00000
												CHANNELS 3 Zrotation Xrotation Yrotation
												End site
												{
													OFFSET 0.00000 0.00000 0.00000
												}
											}
										}
									}
									JOINT RightHandRing1
									{
										OFFSET -12.69180 0.00000 -3.06433
										CHANNELS 3 Zrotation Xrotation Yrotation
										JOINT RightHandRing2
										{
											OFFSET -5.62556 0.00000 0.00000
											CHANNELS 3 Zrotation Xrotation Yrotation
											JOINT RightHandRing3
											{
												OFFSET -3.56744 0.00000 0.00000
												CHANNELS 3 Zrotation Xrotation Yrotation
												End site
												{
													OFFSET 0.00000 0.00000 0.00000
												}
											}
										}
									}
									JOINT RightHandPinky1
									{
										OFFSET -11.11390 0.00000 -6.03719
										CHANNELS 3 Zrotation Xrotation Yrotation
										JOINT RightHandPinky2
										{
											OFFSET -4.52789 0.00000 0.00000
											CHANNELS 3 Zrotation Xrotation Yrotation
											JOINT RightHandPinky3
											{
												OFFSET -2.46976 0.00000 0.00000
												CHANNELS 3 Zrotation Xrotation Yrotation
												End site
												{
													OFFSET 0.00000 0.00000 0.00000
												}
											}
										}
									}
								}
							}
						}
					}
					JOINT LeftShoulder
					{
						OFFSET 0.01000 7.91373 5.19711
						CHANNELS 3 Zrotation Xrotation Yrotation
						JOINT LeftArm
						{
							OFFSET 18.41580 0.00000 0.00000
							CHANNELS 3 Zrotation Xrotation Yrotation
							JOINT LeftForeArm
							{
								OFFSET 29.11090 0.00000 0.00000
								CHANNELS 3 Zrotation Xrotation Yrotation
								JOINT LeftHand
								{
									OFFSET 24.65040 0.00000 0.00000
									CHANNELS 3 Zrotation Xrotation Yrotation
									JOINT LeftHandThumb1
									{
										OFFSET 5.35114 -0.85590 3.97906
										CHANNELS 3 Zrotation Xrotation Yrotation
										JOINT LeftHandThumb2
										{
											OFFSET 4.52789 0.00000 0.00000
											CHANNELS 3 Zrotation Xrotation Yrotation
											JOINT LeftHandThumb3
											{
												OFFSET 2.46977 0.00000 0.00000
												CHANNELS 3 Zrotation Xrotation Yrotation
												End site
												{
													OFFSET 0.00000 0.00000 0.00000
												}
											}
										}
									}
									JOINT LeftHandIndex1
									{
										OFFSET 14.26970 0.00000 2.88139
										CHANNELS 3 Zrotation Xrotation Yrotation
										JOINT LeftHandIndex2
										{
											OFFSET 5.48836 0.00000 0.00000
											CHANNELS 3 Zrotation Xrotation Yrotation
											JOINT LeftHandIndex3
											{
												OFFSET 3.01859 0.00000 0.00000
												CHANNELS 3 Zrotation Xrotation Yrotation
												End site
												{
													OFFSET 0.00000 0.00000 0.00000
												}
											}
										}
									}
									JOINT LeftHandMiddle1
									{
										OFFSET 14.26970 0.00000 -0.09147
										CHANNELS 3 Zrotation Xrotation Yrotation
										JOINT LeftHandMiddle2
										{
											OFFSET 6.17440 0.00000 0.00000
											CHANNELS 3 Zrotation Xrotation Yrotation
											JOINT LeftHandMiddle3
											{
												OFFSET 3.56744 0.00000 0.00000
												CHANNELS 3 Zrotation Xrotation Yrotation
												End site
												{
													OFFSET 0.00000 0.00000 0.00000
												}
											}
										}
									}
									JOINT LeftHandRing1
									{
										OFFSET 12.69180 0.00000 -3.06433
										CHANNELS 3 Zrotation Xrotation Yrotation
										JOINT LeftHandRing2
										{
											OFFSET 5.62556 0.00000 0.00000
											CHANNELS 3 Zrotation Xrotation Yrotation
											JOINT LeftHandRing3
											{
												OFFSET 3.56744 0.00000 0.00000
												CHANNELS 3 Zrotation Xrotation Yrotation
												End site
												{
													OFFSET 0.00000 0.00000 0.00000
												}
											}
										}
									}
									JOINT LeftHandPinky1
									{
										OFFSET 11.11390 0.00000 -6.03719
										CHANNELS 3 Zrotation Xrotation Yrotation
										JOINT LeftHandPinky2
										{
											OFFSET 4.52789 0.00000 0.00000
											CHANNELS 3 Zrotation Xrotation Yrotation
											JOINT LeftHandPinky3
											{
												OFFSET 2.46976 0.00000 0.00000
												CHANNELS 3 Zrotation Xrotation Yrotation
												End site
												{
													OFFSET 0.00000 0.00000 0.00000
												}
											}
										}
									}
								}
							}
						}
					}
					JOINT pCube4
					{
						OFFSET 0.00000 10.91090 1.10792
						CHANNELS 3 Zrotation Xrotation Yrotation
						End site
						{
							OFFSET 0.00000 0.00000 0.00000
						}
					}
				}
			}
		}
	}
	JOINT RightUpLeg
	{
		OFFSET -9.98441 0.00000 0.00000
		CHANNELS 3 Zrotation Xrotation Yrotation
		JOINT RightLeg
		{
			OFFSET 0.00000 -42.11790 0.00000
			CHANNELS 3 Zrotation Xrotation Yrotation
			JOINT RightFoot
			{
				OFFSET 0.00000 -45.00020 -0.00001
				CHANNELS 3 Zrotation Xrotation Yrotation
				JOINT RightForeFoot
				{
					OFFSET 0.00000 -3.74820 0.00000
					CHANNELS 3 Zrotation Xrotation Yrotation
					JOINT RightToeBase
					{
						OFFSET 0.00000 0.06325 14.43120
						CHANNELS 3 Zrotation Xrotation Yrotation
						End site
						{
							OFFSET 0.00000 0.00000 0.00000
						}
					}
				}
			}
		}
	}
	JOINT LeftUpLeg
	{
		OFFSET 9.98441 0.00000 0.00000
		CHANNELS 3 Zrotation Xrotation Yrotation
		JOINT LeftLeg
		{
			OFFSET 0.00000 -42.11800 0.00000
			CHANNELS 3 Zrotation Xrotation Yrotation
			JOINT LeftFoot
			{
				OFFSET 0.00000 -45.00070 0.00000
				CHANNELS 3 Zrotation Xrotation Yrotation
				JOINT LeftForeFoot
				{
					OFFSET 0.00000 -3.74824 0.00000
					CHANNELS 3 Zrotation Xrotation Yrotation
					JOINT LeftToeBase
					{
						OFFSET 0.00000 0.06325 14.43110
						CHANNELS 3 Zrotation Xrotation Yrotation
						End site
						{
							OFFSET 0.00000 0.00000 0.00000
						}
					}
				}
			}
		}
	}
}
MOTION
Frames: 4
Frame Time: 0.050000
0.00914175355765281 -0.028098511925250293 -0.02755176649563437 -0.015773770645099407 -0.026702239416206225 0.04445555385969424 1.975697272309259 4.549571878525674 -1.4369234122889858 -0.6170784983544626 3.8866790024217353 0.3974820061273754 -0.6941256339238633 -1.316141743175141 1.429087361125462 -0.6703457425848548 -0.2486579151012488 -0.3030532177276339 -0.043822665000021244 13.880192671697897 -1.1921328632452282 0.11566899668345386 -0.5947472857827942 -4.576169259578204 0.655184634431619 -16.769379060294735 -0.39462294240226714 -7.421371049251539 2.819606525826435 -14.904089266326936 74.53904872717814 10.966714705442207 19.644125646011933 6.864157456403163 -3.9019687641865124 86.79854952871442 21.640493971315898 -0.5372369319684803 -4.5342743281466396 4.5448057397274715 -0.07824490971905863 -1.5835909352536037 -0.004596755065856336 0.005446499974388243 -56.19621707608299 -0.043709205270122 0.012657347356442708 -56.28325152123037 -38.75557609106675 -0.03697283200772633 -0.014003673313620825 0.013449812839731318 -0.007403593041026923 0.013355491140047885 -0.009839226503297053 0.02627829518088703 0.0052044636755597465 -36.7273738829824 -0.017118043929948378 0.048984670566816414 -0.019027698213065682 -0.012918515604977919 0.035075760614951844 0.009146842121535464 -0.022451979657958344 -0.014050516975389856 -19.7155552359097 0.01605866600578477 0.018848782539606746 0.0008835894527460576 -0.023100626568465253 -0.011586274362190329 0.03078789141888067 -0.008420112942190907 -0.01891616409750606 24.093088781180526 -0.035501671413181994 0.01598920905129139 28.84118416766147 0.011616597401646963 -0.02367082026593607 28.877632113835652 0.04755193562304543 -0.02806106681495573 7.4509234323065465 1.961099056350937 13.702011172412291 -72.25624366639013 21.550846207015603 -14.998526246382177 -7.405361797886084 1.7711780056839743 -72.04985242831295 -20.654728800268042 4.0799767114133685 -3.1558194186470145 -0.4488272449100583 0.0661764533865491 -8.103990696396252 0.0026072361473747103 -0.042064100855249434 44.5220950895005 0.01710391810848634 0.020710364208836953 44.561281997379645 12.501186414111697 -0.04299491676883384 -0.02698726160162747 0.009149008143361306 0.043343082555692865 -0.018562136737641316 0.02994892325194498 0.004212865570060929 0.006799025993569818 11.128126379358367 0.012934899521563526 0.025574647948194692 0.023130600763893196 0.01445046162562083 0.010336669054330082 0.01013267716284759 0.00017821463254738792 -0.03428323543118567 4.764236760189023 -0.0043736571081456725 0.043262811647994226 0.02382767637159465 -0.013652914181979068 0.027279865107404083 -0.004079997639894733 -0.04868111536385086 0.0398714367196436 -5.607846898248592 0.016152448820190797 -0.02658347983634783 -6.7438890343965605 -0.01726352831582187 0.03263414313347347 -6.682309029790349 0.043963792912046905 0.027423677478870683 0.012638340564211623 0.022726726173563232 -0.012909891354678996 8.04179198856747 3.540640748421717 -19.244305395673674 -0.01548553281331046 10.375961068942564 -0.012906621962403827 -5.613269819532574 -15.70933614177764 3.15873780605573 0.03337221998059853 0.016105125470684656 0.019639187697688673 0.024490189763438776 4.702861252913516 -0.023189228908429907 12.507620811502969 -8.216358181894005 6.868262445778961 -0.031216087536813687 46.397388302114656 0.015133478721828476 -4.316363688495233 -14.759208516714718 -3.830197533693003 -0.022827723295066757 0.042027135163483484 0.027469626312709876 -0.006778478316702657 -10.696003833139184 0.005082188396140212 
0.01979199483084368 -0.004776906670617576 0.015581870997580039 0.017915987218514787 -0.02055637804445716 -0.014705928743418688 2.0225677210069617 4.622923414488465 -1.427524759914229 -0.633039937783647 3.871342603308662 0.3427629599961295 -0.6858949687466199 -1.2876884961853683 1.3764205282842978 -0.6091716716711746 -0.17363579787513647 -0.30652220051766965 0.039534875889134846 13.79001482509171 -1.376943993249305 0.1353675236611616 -0.5876959506862302 -5.008076529099626 0.6599256866004022 -16.599278935020482 -0.4126652039103626 -6.992268878082443 2.70982267588537 -14.974558642354092 73.86887077106253 12.2372151007005 18.066694980281216 5.927416928641381 -3.8764208884020452 87.52801351230387 21.7109457423938 -0.5807925357201646 -4.75861137363701 4.539953346780521 -0.14651091856801363 -1.6351974079139284 -0.002168029078319969 -0.00470213647314977 -56.19099554476927 -0.015674892574421805 0.04511655200688126 -56.23572981361055 -38.77509657687816 0.03768064987273912 -0.0021640395658288885 -0.01301250786230125 0.025561917772628687 0.02336856977421733 -0.026733255251464586 0.043455125220692316 -0.028594322395110335 -36.64705332227328 -0.04894796390161632 0.008918918519467647 -0.0461185792475567 0.008818190047075979 0.022502282962904078 -0.036733689559881204 -0.0157040723694259 0.046813221977873486 -19.741366554333407 0.007930153026202438 -0.011794110943544411 0.03598346270176189 0.04429673695883079 -0.014702265413293341 -0.030862407513669966 0.04896453022808913 -0.03292755808997905 24.01799918302906 0.03417761218348116 -0.04370576476866403 28.86089708653559 -0.0414980619181549 -0.03160596657792979 28.83607860313219 0.025651318200409733 -0.02527501384658763 6.922381602494356 1.8846934535887712 13.77603298477005 -72.1064294096462 22.125483065677432 -13.82919089924426 -6.826674244229702 2.4884867845926415 -71.33359082164333 -20.80595235596764 4.251713790382989 -3.2081383613057586 -0.4918540057976054 0.11436424095817993 -8.104846209715761 0.014161431158560429 -0.0073636184049283935 44.600602651413325 -0.0008146972530887214 0.022493104734334406 44.56988459142049 12.47157444995321 0.007408310804274575 -0.01842161416098384 -0.00955946730196161 -0.021906216084832775 0.005892788178889991 0.043501131014903535 -0.035842011725360126 0.033875967401407664 11.057541784921904 0.03642891061389568 -0.0037711841036621196 0.047036440427506286 0.019962912188361593 -0.029375215539907712 0.03422579593628741 -0.03952353899794235 0.02180314470781476 4.797797680754023 0.0030479884298615606 0.03615637574635099 0.046472201479646036 -0.022528909213402015 0.03345882292065906 -0.04553029150298395 -0.019556964377367984 0.048220029698870764 -5.597676831559257 -0.036653865442041696 -0.04666190274482434 -6.712492265960541 0.02414602268755389 -0.02839051438863509 -6.6802415417004015 0.03631501070000702 -0.011915198045059888 0.0024824259475830683 0.022710011725384262 -0.04405464438047181 8.054501533774358 3.5311109851605953 -19.21346644115157 0.03475405567315817 10.365538449950813 -0.0061343406449305415 -5.627725527108407 -15.665449262972087 3.177823018570395 -0.019143516301981234 0.04987252558083492 -0.002577367610943802 -0.0060571869677897095 4.70593081029507 -0.04861124234799066 12.461521358966474 -8.256054519248062 6.918858697291663 0.0018810752707050227 46.376973067323476 -0.021224589632402233 -4.3320772146560405 -14.76537994341713 -3.8049506198083383 -0.039883273880803975 -0.004356261903099284 -0.004890857629375942 -0.03767736654148214 -10.768478046262066 0.018107270848431598 
0.04670904875057813 0.026831728920373894 0.005397158551664335 -0.005720380377592017 -0.012752174196417802 0.03577332746972407 2.1700379758174138 4.688735987175326 -1.5159135427179051 -0.590713796972453 3.815563111347508 0.41253013827567103 -0.6883046270237748 -1.245460439334166 1.3934808734196678 -0.4801398397443811 -0.14069893540282843 -0.2793138442990288 0.11259766926003757 13.700420363610815 -1.5252285358711564 0.08258345279196122 -0.45341003264496665 -5.374429896997656 0.6850176323000063 -16.35124868136152 -0.4836412358341772 -6.583898511767899 2.6384906343237553 -15.039053461518858 73.3518721395511 13.350979359387692 15.926525704256653 5.034012160058856 -3.1175200327003725 85.97542545898047 22.308658410512297 -0.5459180775237907 -4.876533037823968 4.532994369387567 -0.15766919659070727 -1.568203145851108 0.006076947995928946 0.014706079924927142 -56.23093329848756 -0.008820928482749556 -0.027429972849263615 -56.228950321973265 -38.736538946545565 0.021754111877579436 -0.008395582033022412 -0.030115495614970338 0.01327901474722225 0.017596545215594967 0.006029479415600296 -0.027756195865537566 -5.286735833112982e-05 -36.706968769769475 -0.012801489770171993 0.0389550221792803 -0.0274584045246288 -0.01578399108605139 0.005227439179922293 -0.038311632293318104 -0.03410769520796936 0.042811147028939574 -19.729906509602152 -0.010951781901012024 0.0075272082166624715 -0.023483966885713792 0.003006263013242923 0.03936570506604247 -0.005711549699557218 0.008362946754409777 0.04948184465326207 24.026557452668268 -0.02978036883976128 0.04120815086164366 28.826196909071374 0.03439622937855189 -0.013086046243322458 28.86727016301792 0.029846735338543862 0.045611911238229705 6.557232187510755 1.7890414272811883 13.801373683024849 -71.79029826656844 22.423856380429264 -12.664031642600767 -5.504307272025329 3.199290790058017 -69.31264267728474 -21.036936574313582 4.752525828595482 -3.3349215318701995 -0.4299580636471089 0.03813304258744164 -8.133678922850192 0.021957077123713056 0.041070180183926046 44.57003632551065 0.037610203928484735 0.02251728446741103 44.598011388069594 12.508580920681638 -0.0029514989957034167 -0.016863911264558135 0.01693272898736069 -0.020780059110852407 -0.023734948542687987 -0.01826530222125445 0.01580917688112274 0.01658310679913503 11.116166115391513 0.014022786200972295 -0.04882845520130381 -0.043467556526199304 -0.0089320270184073 -0.049135679009885365 -0.007459523016776571 0.04206311496836646 -0.016382345726432858 4.755126641834158 -0.03856657045783538 0.028634694455069283 0.002348534480578379 0.03778856130175604 0.04037582281867299 -0.0032766412239848756 -0.03268972190831021 0.0022470861563976124 -5.616692590158919 -0.04222655221385936 -0.016987677248358785 -6.740025408147274 0.01506076295780816 0.01615997075339156 -6.710230521548938 -0.048426185307552896 -0.035741245273882984 -0.010964631429133037 -0.011206214432375464 0.004591383302943138 8.046768023893026 3.4991249289327975 -19.26700315105418 0.018848164888121625 10.389027922261194 0.04684564585755341 -5.633975119373969 -15.646576215751375 3.2192354646125922 0.025850587781732232 -0.04311821638090169 0.02540898823021684 -0.04716945405319295 4.666650905987859 -0.013990627621247307 12.456898628107423 -8.277416058011804 6.896262010704178 -0.013039150453454199 46.390066376485066 -0.02282521048986174 -4.2925518007489325 -14.76032298502774 -3.8207928635088044 -0.031654165667528225 0.02736922454460953 0.019298885340221464 0.015206099206597651 -10.771872553255573 0.00341148717620335 
-0.018954394389006157 -0.023719249853545954 0.003965221532455371 -0.045204980025071215 -0.02044297995648362 0.00877572367689952 2.1293506663883695 4.7153772740453785 -1.484932028569663 -0.6601352907241607 3.8279011821822926 0.36970511659381683 -0.673549316738965 -1.2030087340068407 1.330394392101898 -0.437125850394706 -0.15512171218934734 -0.3091227477924491 0.12731246662499002 13.542492819536411 -1.6505971391924499 0.14998412431085334 -0.3985290945935921 -5.518480982652621 0.7934591330899714 -16.15776745338614 -0.4630708759615254 -6.121131265939835 2.523931663393126 -15.192568636989606 72.8895823110554 14.524745621272725 13.238330694144821 4.138504837125848 -1.55620788897902 82.91996887086432 23.470281423245524 -0.501751769093048 -5.019118799694287 4.501868974936711 -0.12763538479038997 -1.5470567642857247 -0.01056751451712683 -0.023322312159770292 -56.22666044226911 -0.002090930946471939 0.01157287471731061 -56.27693855427954 -38.77833256062709 -0.002157991319647931 0.013292480457868383 -0.0210284032751927 -0.023132682503247532 0.007296340026639434 0.022842539520038403 -0.017397655913277795 -0.010194092768716658 -36.700594605304346 0.007416215479299508 0.010621702622850003 -0.00356982876388838 0.0073862496020740825 0.0006459993429440125 -0.017515242713553175 0.031573589032879434 -0.0027790837833175652 -19.793895751806115 -0.04181266096996618 -0.01744352889733748 -0.03610798183804951 0.02433803949264813 0.04109819685976885 -0.012365626231293834 0.018944314150726695 -0.004619570616155474 24.01997570892102 0.024482240027469956 -0.017972177721659245 28.87218756970173 -0.02990272528719753 -0.034739763374590074 28.86073477861446 -0.030255577725804287 -0.011325920018177818 6.135068000212112 1.7787565851216676 13.889740488116813 -71.43280702058567 22.62624711805403 -11.670922683285031 -4.125376830743901 3.7377384072395072 -67.6115975254525 -21.255858639285023 5.249048184130409 -3.532363067316656 -0.4872892120520058 0.045995342778625437 -8.100426123572923 -0.03700039567503839 0.028355494072292906 44.57232130908014 0.003426521249076605 -0.013180788435560406 44.517945766208264 12.454294516999841 -0.009660995479816874 -0.02671726130087436 0.020929194915192004 -0.0271102247358121 -0.029202172071627938 -0.028704465177346303 -0.03665827242177868 -0.01557135596833107 11.090370363441426 0.036096972183986144 -0.001589187723508114 -0.04019511367753943 0.005035296163882824 0.03248547284258956 -0.030864923050965207 -0.03455972978973237 -0.018672159265164787 4.816090985044886 -0.008447882262583459 0.006210697101493746 -0.021268495097953335 -0.026285457027409087 0.006172859313380773 -0.02774902320349522 -0.028589812947364235 -0.003242223330167513 -5.63303003057637 0.0185604558095344 -0.025937509025872635 -6.724341720863249 0.02525046953986232 0.004497288154073666 -6.759474889210853 -0.04396711715996504 0.02809592262354413 -0.009419021167463612 -0.010984610434051429 -0.04271167291979162 8.073815037684708 3.492268992949633 -19.19419542191773 0.017414415359183266 10.348745033982565 -0.022759287438343993 -5.619865621116886 -15.676132654022249 3.1924354551897522 -0.020085017137976367 0.027167936596364236 -0.004272575381955494 -0.01194782796638145 4.737063353904255 -0.03583727809809203 12.480193740191035 -8.220921416173397 6.890762796542602 -0.030919905165035053 46.35224623902628 0.008307887227912923 -4.3069771200679465 -14.75931356296942 -3.795062315989552 0.0408189442342851 -0.01094124642241287 0.00041717698460750843 0.01821463322299951 -10.771372098898121 -0.0026349645014561163 
